<svg version="1.2" xmlns="http://www.w3.org/2000/svg" viewBox="0 0 1000 1000" width="1000" height="1000"><defs><linearGradient id="P" gradientUnits="userSpaceOnUse"/><linearGradient id="g1" x1="0" y1="1000" x2="1000" y2="0" href="#P"><stop stop-color="#ff8400"/><stop offset=".5" stop-color="#ff1f00"/><stop offset="1" stop-color="#ff0078"/></linearGradient></defs><style>.a{fill:url(#g1)}.b{fill:#fff}</style><path class="a" d="m0 200c0-110.5 89.5-200 200-200h600c110.5 0 200 89.5 200 200v600c0 110.5-89.5 200-200 200h-600c-110.5 0-200-89.5-200-200z"/><path class="b" d="m726.8 261v80.3q-38.5-35.8-82.3-53.5-43.3-17.8-92.4-17.8-96.5 0-147.9 59.3-51.3 58.8-51.3 170.5 0 111.3 51.3 170.5 51.4 58.8 147.9 58.8 49.1 0 92.4-17.7 43.8-17.7 82.3-53.6v79.6q-40 27.2-84.9 40.8-44.5 13.6-94.3 13.6-127.9 0-201.4-78.1-73.6-78.5-73.6-213.9 0-135.8 73.6-213.9 73.5-78.5 201.4-78.5 50.5 0 95.1 13.6 44.9 13.2 84.1 40z"/></svg>